<svg xmlns="http://www.w3.org/2000/svg" width="56" height="56" fill="none" viewBox="0 0 56 56"><circle cx="28" cy="28" r="28" fill="url(#paint0_radial_14265_10320)"/><path fill="url(#paint1_linear_14265_10320)" d="M10.1734 26.7098L12.9991 23L15.9987 30.2038C15.9987 30.2038 16.1609 30.2038 12.5938 33.8726C10.3314 36.1994 8.6887 37.235 7.78961 37.6813C7.38969 37.8798 6.97839 37.5927 6.95487 37.1468C6.75704 33.3964 7.89766 29.6975 10.1734 26.7098Z"/><path fill="url(#paint2_linear_14265_10320)" d="M45.8266 26.7098L43.0009 23L40.0013 30.2038C40.0013 30.2038 39.8391 30.2038 43.4062 33.8726C45.6686 36.1994 47.3113 37.235 48.2104 37.6813C48.6103 37.8798 49.0216 37.5927 49.0451 37.1468C49.243 33.3964 48.1023 29.6975 45.8266 26.7098Z"/><g filter="url(#filter0_ii_14265_10320)"><circle cx="17" cy="17" r="17" fill="url(#paint3_linear_14265_10320)" transform="matrix(-1 0 0 1 45 11)"/><circle cx="17" cy="17" r="17" fill="url(#paint4_linear_14265_10320)" transform="matrix(-1 0 0 1 45 11)"/></g><rect width="27" height="19" x="-.5" y=".5" fill="#13107C" stroke="url(#paint5_linear_14265_10320)" rx="9.5" transform="matrix(-1 0 0 1 41 16)"/><path fill="#fff" fill-opacity=".12" d="M31.966 17H23C23 17 28.625 18.125 32.375 24.875C36.125 31.625 32.375 35 32.375 35C37.1385 35 41 31.1385 41 26.375V25.25C40.5752 20.5776 36.6577 17 31.966 17Z"/><g filter="url(#filter1_d_14265_10320)"><ellipse cx="22" cy="23.5" fill="#fff" rx="2" ry="2.5"/></g><g filter="url(#filter2_d_14265_10320)"><ellipse cx="34" cy="23.5" fill="#fff" rx="2" ry="2.5"/></g><g filter="url(#filter3_d_14265_10320)"><path fill="#fff" d="M30.9772 29H25.0228C25.0096 29 24.9991 29.0119 25.0001 29.026C25.2661 32.9913 30.7339 32.9913 30.9999 29.026C31.0009 29.0119 30.9904 29 30.9772 29Z"/></g><defs><filter id="filter0_ii_14265_10320" width="34" height="40" x="11" y="8" color-interpolation-filters="sRGB" filterUnits="userSpaceOnUse"><feFlood flood-opacity="0" result="BackgroundImageFix"/><feBlend in="SourceGraphic" in2="BackgroundImageFix" mode="normal" result="shape"/><feColorMatrix in="SourceAlpha" result="hardAlpha" type="matrix" values="0 0 0 0 0 0 0 0 0 0 0 0 0 0 0 0 0 0 127 0"/><feOffset dy="3"/><feGaussianBlur stdDeviation="1.5"/><feComposite in2="hardAlpha" k2="-1" k3="1" operator="arithmetic"/><feColorMatrix type="matrix" values="0 0 0 0 1 0 0 0 0 1 0 0 0 0 1 0 0 0 1 0"/><feBlend in2="shape" mode="normal" result="effect1_innerShadow_14265_10320"/><feColorMatrix in="SourceAlpha" result="hardAlpha" type="matrix" values="0 0 0 0 0 0 0 0 0 0 0 0 0 0 0 0 0 0 127 0"/><feOffset dy="-3"/><feGaussianBlur stdDeviation="2"/><feComposite in2="hardAlpha" k2="-1" k3="1" operator="arithmetic"/><feColorMatrix type="matrix" values="0 0 0 0 0.804167 0 0 0 0 0.807862 0 0 0 0 1 0 0 0 1 0"/><feBlend in2="effect1_innerShadow_14265_10320" mode="normal" result="effect2_innerShadow_14265_10320"/></filter><filter id="filter1_d_14265_10320" width="14" height="15" x="15" y="16" color-interpolation-filters="sRGB" filterUnits="userSpaceOnUse"><feFlood flood-opacity="0" result="BackgroundImageFix"/><feColorMatrix in="SourceAlpha" result="hardAlpha" type="matrix" values="0 0 0 0 0 0 0 0 0 0 0 0 0 0 0 0 0 0 127 0"/><feOffset/><feGaussianBlur stdDeviation="2.5"/><feComposite in2="hardAlpha" operator="out"/><feColorMatrix type="matrix" values="0 0 0 0 0 0 0 0 0 0.792438 0 0 0 0 0.9875 0 0 0 1 0"/><feBlend in2="BackgroundImageFix" mode="normal" result="effect1_dropShadow_14265_10320"/><feBlend in="SourceGraphic" in2="effect1_dropShadow_14265_10320" mode="normal" result="shape"/></filter><filter id="filter2_d_14265_10320" width="14" height="15" x="27" y="16" color-interpolation-filters="sRGB" filterUnits="userSpaceOnUse"><feFlood flood-opacity="0" result="BackgroundImageFix"/><feColorMatrix in="SourceAlpha" result="hardAlpha" type="matrix" values="0 0 0 0 0 0 0 0 0 0 0 0 0 0 0 0 0 0 127 0"/><feOffset/><feGaussianBlur stdDeviation="2.5"/><feComposite in2="hardAlpha" operator="out"/><feColorMatrix type="matrix" values="0 0 0 0 0 0 0 0 0 0.792438 0 0 0 0 0.9875 0 0 0 1 0"/><feBlend in2="BackgroundImageFix" mode="normal" result="effect1_dropShadow_14265_10320"/><feBlend in="SourceGraphic" in2="effect1_dropShadow_14265_10320" mode="normal" result="shape"/></filter><filter id="filter3_d_14265_10320" width="16" height="13" x="20" y="24" color-interpolation-filters="sRGB" filterUnits="userSpaceOnUse"><feFlood flood-opacity="0" result="BackgroundImageFix"/><feColorMatrix in="SourceAlpha" result="hardAlpha" type="matrix" values="0 0 0 0 0 0 0 0 0 0 0 0 0 0 0 0 0 0 127 0"/><feOffset/><feGaussianBlur stdDeviation="2.5"/><feComposite in2="hardAlpha" operator="out"/><feColorMatrix type="matrix" values="0 0 0 0 0 0 0 0 0 0.792438 0 0 0 0 0.9875 0 0 0 1 0"/><feBlend in2="BackgroundImageFix" mode="normal" result="effect1_dropShadow_14265_10320"/><feBlend in="SourceGraphic" in2="effect1_dropShadow_14265_10320" mode="normal" result="shape"/></filter><radialGradient id="paint0_radial_14265_10320" cx="0" cy="0" r="1" gradientTransform="translate(8 1) rotate(44.7407) scale(78.1361)" gradientUnits="userSpaceOnUse"><stop stop-color="#FFA891"/><stop offset=".22" stop-color="#F54BCD"/><stop offset=".415" stop-color="#8940FF"/><stop offset=".634" stop-color="#514AFF"/><stop offset=".91" stop-color="#45E4E6"/><stop offset="1" stop-color="#BFD5FF"/></radialGradient><linearGradient id="paint1_linear_14265_10320" x1="10" x2="12" y1="27.5" y2="34.5" gradientUnits="userSpaceOnUse"><stop stop-color="#B7BDFD"/><stop offset="1" stop-color="#9595FE"/></linearGradient><linearGradient id="paint2_linear_14265_10320" x1="46" x2="44" y1="27.5" y2="34.5" gradientUnits="userSpaceOnUse"><stop stop-color="#B7BDFD"/><stop offset="1" stop-color="#9595FE"/></linearGradient><linearGradient id="paint3_linear_14265_10320" x1="6.25" x2="25.5" y1="1.75" y2="31.75" gradientUnits="userSpaceOnUse"><stop stop-color="#FFBB9E"/><stop offset=".49" stop-color="#F935FF"/><stop offset="1" stop-color="#48AAFF"/></linearGradient><linearGradient id="paint4_linear_14265_10320" x1="-20.5" x2="27.963" y1="44.861" y2=".087" gradientUnits="userSpaceOnUse"><stop stop-color="#E4E9FF" stop-opacity="0"/><stop offset="1" stop-color="#E4E9FF"/></linearGradient><linearGradient id="paint5_linear_14265_10320" x1=".049" x2="28.049" y1="6.863" y2="6.863" gradientUnits="userSpaceOnUse"><stop stop-color="#FFAC88"/><stop offset=".49" stop-color="#ED40FF"/><stop offset="1" stop-color="#09F"/></linearGradient></defs></svg>