<svg xmlns="http://www.w3.org/2000/svg" width="20" height="20" fill="none" viewBox="0 0 20 20"><rect width="20" height="20" fill="#000" opacity=".16" rx="2"/><path fill="#fff" fill-rule="evenodd" d="M17 3H3L3 17H17V3ZM3 1C1.89543 1 1 1.89543 1 3V17C1 18.1046 1.89543 19 3 19H17C18.1046 19 19 18.1046 19 17V3C19 1.89543 18.1046 1 17 1H3Z" clip-rule="evenodd"/><path fill="#fff" d="M7 15H10V13H7V10H5V14C5 15.1046 5.89543 15 7 15Z"/><path fill="#fff" d="M14 5H10V7H13V10H15V7C15 5.89543 15.1046 5 14 5Z"/></svg>