<svg xmlns="http://www.w3.org/2000/svg" xmlns:xlink="http://www.w3.org/1999/xlink" id="图层_1" x="0" y="0" version="1.1" viewBox="0 0 42 42" xml:space="preserve" style="enable-background:new 0 0 42 42"><style type="text/css">.st0{fill:url(#SVGID_1_)}.st1{fill:#fff}</style><linearGradient id="SVGID_1_" x1="10.498" x2="31.502" y1="2.81" y2="39.19" gradientUnits="userSpaceOnUse"><stop offset="0" style="stop-color:#efc33e"/><stop offset="1" style="stop-color:#f39b49"/></linearGradient><circle cx="21" cy="21" r="21" class="st0"/><path d="M28.1,24.2l0.3,5.3c0.2,0.9-0.5,1.8-1.4,1.9c-0.1,0-0.2,0-0.3,0h0c-0.2,0-0.4,0-0.6-0.1l-5.2-2l-5.2,2	c-0.9,0.3-1.8-0.1-2.2-1c-0.1-0.2-0.1-0.5-0.1-0.7l0.3-5.4l-3.5-4.3c-0.6-0.7-0.5-1.8,0.2-2.4c0.2-0.2,0.4-0.3,0.7-0.3l5.3-1.3	l3-4.7c0.5-0.8,1.5-1,2.3-0.5c0.2,0.1,0.4,0.3,0.5,0.5l3,4.7l5.3,1.3c0.9,0.2,1.5,1.1,1.2,2c-0.1,0.2-0.2,0.5-0.3,0.7L28.1,24.2	L28.1,24.2z M27,18.7c-5.9-1.4-11.9-0.5-11.9-0.5c5,0.5,7.5,1.6,7.5,1.6l-7.2,6.2c6.6,1.6,12.1-0.3,12.1-0.3c-7.1-0.7-8-1.3-8-1.3	L27,18.7L27,18.7z" class="st1"/></svg>