<svg xmlns="http://www.w3.org/2000/svg" width="420" height="248" fill="none" viewBox="0 0 420 248"><rect width="420" height="248" fill="#292A29"/><path fill="url(#paint0_linear_424_4848)" d="M419.5 0H248C250.745 48.552 269 94.5 319.5 122C370 149.5 419.5 133.5 419.5 133.5V0Z"/><path fill="url(#paint1_linear_424_4848)" d="M0 248H140C137.759 205.82 122.857 165.902 81.6327 142.011C40.4082 118.12 0 132.021 0 132.021V248Z"/><rect width="62" height="62" x="179" y="93" fill="#fff" fill-opacity=".15" rx="31"/><path fill="#fff" d="M203 132.468V115.532C203 113.978 204.696 113.018 206.029 113.817L220.142 122.285C221.436 123.062 221.436 124.938 220.142 125.715L206.029 134.183C204.696 134.982 203 134.022 203 132.468Z"/><defs><linearGradient id="paint0_linear_424_4848" x1="277" x2="420" y1="3.5" y2="109" gradientUnits="userSpaceOnUse"><stop stop-color="#3D3D3D"/><stop offset="1" stop-color="#2C2C2C"/></linearGradient><linearGradient id="paint1_linear_424_4848" x1="116.327" x2="-5.432" y1="244.959" y2="160.552" gradientUnits="userSpaceOnUse"><stop stop-color="#3D3D3D"/><stop offset="1" stop-color="#2C2C2C"/></linearGradient></defs></svg>